<svg width="254" height="65" viewBox="0 0 254 65" fill="none" xmlns="http://www.w3.org/2000/svg">
<path d="M41.5073 25.5908L47.1164 23.92C52.7255 22.2492 57.8231 24.7895 59.4257 30.177C61.0283 35.5644 58.1812 40.4745 52.555 42.1453L46.9459 43.8161L41.5073 25.5908ZM51.3616 38.889C55.4022 37.6785 56.5445 34.712 55.5215 31.3192C54.5157 27.9094 51.9413 26.0511 47.8836 27.2616L46.2469 27.756L49.7079 39.3834L51.3616 38.889Z" fill="white"/>
<path d="M63.8584 29.086C62.8355 23.5621 66.3817 18.7032 71.7691 17.6973C77.1566 16.7085 82.2031 19.9819 83.226 25.5057C84.2489 31.0296 80.7027 35.8885 75.3153 36.8944C69.9108 37.8832 64.8643 34.6098 63.8584 29.086ZM79.2536 26.2388C78.6057 22.7438 75.8097 20.5104 72.3999 21.1412C68.9901 21.772 67.1659 24.8579 67.8138 28.3529C68.4616 31.8479 71.2576 34.0813 74.6674 33.4505C78.0772 32.8197 79.8844 29.7338 79.2536 26.2388Z" fill="white"/>
<path d="M88.4771 27.5338L87.2666 15.4631L91.1538 15.071L92.3472 26.92C92.62 29.6649 93.9327 30.6026 96.5071 30.3468C99.0645 30.0911 100.121 28.9147 99.8487 26.1698L98.6553 14.3208L102.542 13.9287L103.77 25.9993C104.247 30.7901 101.179 33.4327 96.8651 33.8589C92.5006 34.2851 88.9544 32.3075 88.4771 27.5338Z" fill="white"/>
<path d="M108.492 23.0162C108.322 17.4071 112.158 13.1619 117.886 12.9914C120.989 12.8891 123.257 13.6563 124.876 15.3953L122.302 18.1061C121.313 17.1514 120.205 16.4353 118.006 16.5035C114.562 16.6058 112.414 19.3336 112.533 22.8798C112.652 26.426 115.022 29.0686 119.011 28.9322C120.239 28.8981 121.739 28.6253 122.711 28.1138L122.626 25.3178L118.04 25.4542L117.937 22.0103L126.104 21.7546L126.36 29.9722C125.303 30.8928 122.609 32.3079 119.131 32.4101C112.908 32.6318 108.663 28.6253 108.492 23.0162Z" fill="white"/>
<path d="M131.867 12.9912L135.788 13.1276L135.447 22.8455L143.58 23.1353L143.921 13.4174L147.825 13.5538L147.16 32.5463L143.256 32.4099L143.46 26.6303L135.328 26.3405L135.123 32.1201L131.219 31.9837L131.867 12.9912Z" fill="white"/>
<path d="M161.941 14.7305L165.828 15.2078L163.918 30.6712L172.46 31.7282L172.034 35.138L159.605 33.6036L161.941 14.7305Z" fill="white"/>
<path d="M186.764 18.3276L187.088 18.3958L191.879 38.8886L187.855 38.0873L187.395 35.8028L179.825 34.3025L178.529 36.246L174.83 35.5129L186.764 18.3276ZM186.679 32.3248L185.98 28.8298C185.69 27.3977 185.519 25.2665 185.519 25.2665C185.519 25.2665 184.565 27.1931 183.763 28.3865L181.769 31.353L186.679 32.3248Z" fill="white"/>
<path d="M200.727 21.5503L207.768 23.6473C211.178 24.6702 212.44 27.364 211.673 29.9384C211.178 31.6262 209.831 32.4787 208.109 32.5298C210.428 33.8596 211.144 35.8884 210.462 38.1559C209.49 41.3952 206.49 43.1001 202.671 41.9579L195.306 39.7585L200.727 21.5503ZM203.489 38.6333C205.024 39.0936 206.285 38.3605 206.728 36.8602C207.172 35.394 206.473 34.0642 204.768 33.5527L201.529 32.5809L200.028 37.5933L203.489 38.6333ZM205.365 30.2623C206.575 30.6203 207.581 30.1941 207.888 29.1541C208.195 28.1141 207.734 27.2446 206.575 26.9037L203.489 25.983L202.466 29.4098L205.365 30.2623Z" fill="white"/>
<path d="M74.3783 54.5599H72.3154L72.179 54.9009C71.9744 55.3953 71.8721 55.7193 71.8721 55.8727C71.8721 56.0432 71.9232 56.1625 72.0426 56.2478C72.1619 56.333 72.2983 56.3671 72.4688 56.3671V56.5547H70.8662V56.3671C71.1049 56.333 71.2924 56.2478 71.3947 56.1114C71.5141 55.975 71.6505 55.7022 71.821 55.276C71.838 55.2419 71.8891 55.0884 72.0085 54.8157L73.577 51.0479H73.7304L75.5376 55.3442L75.7934 55.9068C75.8445 56.0432 75.9297 56.1284 76.015 56.2137C76.1002 56.2819 76.2537 56.333 76.4412 56.3501V56.5376H74.3101V56.3501C74.5658 56.3501 74.7534 56.333 74.8386 56.2989C74.9239 56.2648 74.975 56.1796 74.975 56.0773C74.975 56.0261 74.9068 55.8386 74.7875 55.5488L74.3783 54.5599ZM74.3101 54.3894L73.3554 52.0878L72.4006 54.3894H74.3101Z" fill="white"/>
<path d="M83.9769 56.5689H82.5107C82.255 56.3814 81.8629 55.9211 81.3173 55.1539C81.1468 54.9152 80.9763 54.6765 80.7888 54.4549C80.6012 54.2332 80.4819 54.0968 80.4137 54.0457C80.3455 53.9945 80.2432 53.9775 80.0898 53.9775H79.8852V55.188C79.8852 55.6142 79.9022 55.887 79.9193 56.0234C79.9363 56.1598 79.9875 56.245 80.0727 56.3132C80.158 56.3814 80.3285 56.4155 80.5671 56.4155H80.8229V56.603H78.2314V56.4155H78.4019C78.6406 56.4155 78.7941 56.3814 78.8793 56.3303C78.9645 56.2791 79.0157 56.1768 79.0498 56.0575C79.0668 55.9381 79.0839 55.6483 79.0839 55.188V52.5283C79.0839 52.1021 79.0668 51.8123 79.0498 51.6929C79.0157 51.5736 78.9645 51.4884 78.8964 51.4372C78.8111 51.3861 78.6406 51.369 78.3678 51.369H78.2826V51.1815L79.0668 51.1474C79.5783 51.1303 79.9875 51.1133 80.2944 51.1133C80.8058 51.1133 81.2321 51.1644 81.556 51.2497C81.8799 51.352 82.1356 51.5054 82.3402 51.727C82.5448 51.9487 82.6471 52.2044 82.6471 52.5113C82.6471 52.8693 82.5107 53.1591 82.255 53.4149C81.9993 53.6706 81.6071 53.8241 81.1127 53.8752C81.3343 53.9775 81.7094 54.3867 82.2038 55.0516C82.613 55.5971 82.9369 55.9552 83.1756 56.1257C83.4143 56.2962 83.6871 56.3814 84.011 56.3984V56.5689H83.9769ZM79.8852 53.7729C80.0898 53.7729 80.2944 53.7559 80.499 53.7559C80.7035 53.7388 80.8911 53.7218 81.0445 53.6706C81.198 53.6195 81.3343 53.5513 81.4196 53.466C81.5219 53.3808 81.5901 53.2614 81.6412 53.108C81.6924 52.9546 81.7265 52.767 81.7265 52.5624C81.7265 52.1874 81.6412 51.8805 81.4366 51.6418C81.2491 51.4202 80.8399 51.3008 80.1921 51.3008C80.0898 51.3008 79.9875 51.3008 79.8511 51.3179V53.7729H79.8852Z" fill="white"/>
<path d="M85.1875 52.4427H85L85.0341 51.147H90.2852L90.3193 52.4427H90.1488C90.0806 52.0847 89.9953 51.8289 89.893 51.6755C89.7907 51.5221 89.6714 51.4198 89.5521 51.3857C89.4327 51.3516 89.2281 51.3345 88.9213 51.3345H88.0518V55.1535C88.0518 55.5797 88.0688 55.8525 88.0859 55.9889C88.1029 56.1253 88.1541 56.2276 88.2563 56.2787C88.3416 56.3469 88.5121 56.381 88.7508 56.381H89.0065V56.5685H86.3128V56.381H86.5856C86.8072 56.381 86.9777 56.3469 87.0629 56.2957C87.1482 56.2446 87.2164 56.1423 87.2334 56.023C87.2505 55.9036 87.2675 55.6138 87.2675 55.1535V51.3345H86.4662C86.1082 51.3345 85.8865 51.3516 85.7672 51.3857C85.6479 51.4198 85.5285 51.522 85.4262 51.6925C85.3239 51.846 85.2387 52.1017 85.1875 52.4427Z" fill="white"/>
<path d="M92.3476 51.3345V51.147H94.8197V51.3345H94.7004C94.4276 51.3345 94.2571 51.3516 94.1718 51.4027C94.0866 51.4539 94.0355 51.5221 94.0014 51.6414C93.9673 51.7607 93.9673 52.0506 93.9673 52.4938V55.1535C93.9673 55.5797 93.9843 55.8525 94.0014 55.9889C94.0184 56.1253 94.0696 56.2105 94.1548 56.2787C94.24 56.3469 94.4105 56.381 94.6492 56.381H94.8027V56.5685H92.3306V56.381H92.484C92.7227 56.381 92.8761 56.3469 92.9614 56.2957C93.0466 56.2446 93.1148 56.1423 93.1319 56.023C93.1489 55.9036 93.166 55.6138 93.166 55.1535V52.4938C93.166 52.0676 93.1489 51.7778 93.1319 51.6584C93.0978 51.5391 93.0466 51.4539 92.9784 51.4027C92.8932 51.3516 92.7227 51.3345 92.4499 51.3345H92.3476Z" fill="white"/>
<path d="M97.1387 56.5005V54.7615H97.3433C97.5649 55.9038 98.1105 56.4664 98.9629 56.4664C99.338 56.4664 99.6449 56.3641 99.8495 56.1425C100.054 55.9209 100.156 55.6822 100.156 55.4094C100.156 55.1366 100.071 54.915 99.8835 54.7274C99.696 54.5399 99.3721 54.3524 98.8777 54.1478C98.4344 53.9602 98.1105 53.7898 97.8888 53.6534C97.6672 53.517 97.4967 53.3294 97.3774 53.1078C97.258 52.8862 97.1898 52.6475 97.1898 52.3917C97.1898 51.9996 97.3262 51.6927 97.599 51.42C97.8718 51.1642 98.2128 51.0278 98.6219 51.0278C98.8436 51.0278 99.0652 51.0619 99.2698 51.1472C99.4744 51.2154 99.679 51.3688 99.9006 51.6075C100.02 51.4541 100.088 51.3006 100.105 51.1301H100.276V52.5452H100.105C100.003 52.136 99.8324 51.8121 99.5767 51.5734C99.3209 51.3347 99.0141 51.2154 98.6901 51.2154C98.3662 51.2154 98.1275 51.3006 97.9741 51.4711C97.8206 51.6416 97.7524 51.8291 97.7524 52.0508C97.7524 52.3065 97.8377 52.5111 98.0423 52.6816C98.2298 52.8521 98.5708 53.0567 99.0481 53.2783C99.5085 53.4829 99.8494 53.6534 100.071 53.7727C100.276 53.8921 100.446 54.0796 100.583 54.3012C100.719 54.5229 100.77 54.7786 100.77 55.0855C100.77 55.5458 100.617 55.9209 100.31 56.2107C100.003 56.5005 99.5937 56.654 99.0652 56.654C98.4685 56.654 97.9741 56.4323 97.5819 55.972C97.4967 56.0914 97.4285 56.2789 97.3774 56.5005H97.1387Z" fill="white"/>
<path d="M106.277 54.557H104.214L104.077 54.898C103.873 55.3924 103.77 55.7163 103.77 55.8698C103.77 56.0403 103.822 56.1596 103.941 56.2448C104.043 56.3301 104.197 56.3642 104.367 56.3642V56.5517H102.748V56.3642C102.986 56.3301 103.174 56.2448 103.276 56.1085C103.395 55.9721 103.532 55.6993 103.702 55.2731C103.719 55.239 103.788 55.0855 103.89 54.8127L105.458 51.0449H105.612L107.419 55.3413L107.675 55.9039C107.726 56.0403 107.811 56.1255 107.896 56.2107C107.999 56.2789 108.135 56.3301 108.323 56.3471V56.5347H106.191V56.3471C106.447 56.3471 106.635 56.3301 106.72 56.296C106.805 56.2619 106.856 56.1766 106.856 56.0744C106.856 56.0232 106.788 55.8357 106.669 55.5458L106.277 54.557ZM106.208 54.3865L105.254 52.0849L104.299 54.3865H106.208Z" fill="white"/>
<path d="M114.955 56.6878L111.119 51.6073V55.3751C111.119 55.6819 111.136 55.8865 111.17 55.9888C111.204 56.0911 111.289 56.1764 111.425 56.2616C111.562 56.3469 111.783 56.381 112.073 56.381V56.5685H110.044V56.381C110.3 56.3639 110.505 56.3128 110.641 56.2446C110.778 56.1764 110.863 56.0911 110.88 56.0059C110.897 55.9206 110.914 55.716 110.914 55.3751V52.4938C110.914 52.0846 110.897 51.7948 110.846 51.6584C110.812 51.522 110.743 51.4197 110.658 51.3856C110.573 51.3515 110.385 51.3174 110.096 51.3174V51.1299H111.698L114.903 55.3751V52.1358C114.903 51.8971 114.886 51.7266 114.835 51.6243C114.784 51.522 114.682 51.4538 114.528 51.4027C114.375 51.3515 114.187 51.3174 113.983 51.3174V51.1299H115.943V51.3174C115.722 51.3345 115.534 51.3856 115.398 51.4538C115.261 51.522 115.176 51.6073 115.142 51.7095C115.108 51.8118 115.091 51.9653 115.091 52.204V56.6878H114.955Z" fill="white"/>
<path d="M121.008 54.557H118.945L118.808 54.898C118.604 55.3924 118.501 55.7163 118.501 55.8698C118.501 56.0403 118.553 56.1596 118.672 56.2448C118.791 56.3301 118.928 56.3642 119.098 56.3642V56.5517H117.496V56.3642C117.734 56.3301 117.905 56.2448 118.024 56.1085C118.143 55.9721 118.28 55.6993 118.45 55.2731C118.467 55.239 118.519 55.0855 118.638 54.8127L120.206 51.0449H120.36L122.167 55.3413L122.406 55.9039C122.457 56.0403 122.542 56.1255 122.627 56.2107C122.73 56.2789 122.866 56.3301 123.054 56.3471V56.5347H120.922V56.3471C121.178 56.3471 121.366 56.3301 121.451 56.296C121.536 56.2619 121.587 56.1766 121.587 56.0744C121.587 56.0232 121.519 55.8357 121.4 55.5458L121.008 54.557ZM120.939 54.3865L119.985 52.0849L119.03 54.3865H120.939Z" fill="white"/>
<path d="M129.531 54.9659L129.497 56.5514H124.894V56.3639H125.047C125.286 56.3639 125.44 56.3298 125.525 56.2787C125.61 56.2275 125.678 56.1252 125.695 56.0059C125.729 55.8865 125.729 55.5967 125.729 55.1364V52.4767C125.729 52.0505 125.712 51.7607 125.695 51.6414C125.678 51.522 125.627 51.4368 125.542 51.3856C125.457 51.3345 125.286 51.3174 125.013 51.3174H124.877V51.1299H127.485V51.3174H127.247C126.974 51.3174 126.803 51.3345 126.718 51.3856C126.633 51.4368 126.582 51.505 126.548 51.6243C126.514 51.7436 126.514 52.0335 126.514 52.4767V55.3069C126.514 55.699 126.531 55.9377 126.548 56.04C126.565 56.1423 126.633 56.2105 126.718 56.2616C126.803 56.3128 127.008 56.3469 127.332 56.3469H127.741C128.082 56.3469 128.321 56.3128 128.491 56.2616C128.645 56.2105 128.798 56.0741 128.952 55.8695C129.105 55.6649 129.224 55.358 129.344 54.9318H129.531V54.9659Z" fill="white"/>
<path d="M140.085 54.5229H140.256V56.4153H140.085C140.034 56.1937 139.949 56.0061 139.83 55.8527C139.352 56.3982 138.738 56.654 138.005 56.654C137.221 56.654 136.59 56.3982 136.079 55.9038C135.584 55.4094 135.329 54.7445 135.329 53.9432C135.329 53.4147 135.448 52.9032 135.67 52.4258C135.891 51.9485 136.215 51.6075 136.624 51.3688C137.034 51.1472 137.477 51.0278 137.971 51.0278C138.38 51.0278 138.738 51.1131 139.079 51.2836C139.403 51.4541 139.659 51.6416 139.812 51.8291C139.932 51.6075 140 51.3688 140.017 51.1301H140.188L140.239 53.176H140.068C139.949 52.4429 139.71 51.9314 139.335 51.6586C138.96 51.3688 138.551 51.2324 138.091 51.2324C137.528 51.2324 137.068 51.4541 136.744 51.9144C136.403 52.3747 136.249 53.0396 136.249 53.8921C136.249 54.7104 136.437 55.3242 136.795 55.7674C137.153 56.1937 137.613 56.4153 138.159 56.4153C138.449 56.4153 138.738 56.3471 139.045 56.2107C139.352 56.0743 139.591 55.8356 139.761 55.4947C139.949 55.1707 140.051 54.8468 140.085 54.5229Z" fill="white"/>
<path d="M142.847 53.8239C142.847 52.9885 143.119 52.3065 143.682 51.8121C144.245 51.3007 144.944 51.0449 145.779 51.0449C146.632 51.0449 147.331 51.3007 147.893 51.7951C148.456 52.2895 148.746 52.9714 148.746 53.8409C148.746 54.6763 148.473 55.3583 147.927 55.8868C147.382 56.3983 146.666 56.6711 145.779 56.6711C144.927 56.6711 144.211 56.4153 143.665 55.8868C143.119 55.3583 142.847 54.6763 142.847 53.8239ZM143.767 53.8409C143.767 54.7104 143.938 55.3583 144.296 55.8016C144.637 56.2448 145.165 56.4494 145.864 56.4494C146.478 56.4494 146.955 56.2278 147.314 55.8016C147.672 55.3583 147.842 54.7104 147.842 53.8409C147.842 53.0055 147.672 52.3577 147.314 51.8974C146.955 51.4541 146.461 51.2154 145.796 51.2154C145.148 51.2154 144.637 51.437 144.296 51.8803C143.938 52.3406 143.767 52.9885 143.767 53.8409Z" fill="white"/>
<path d="M151.218 53.8239C151.218 52.9885 151.491 52.3065 152.053 51.8121C152.616 51.3007 153.315 51.0449 154.15 51.0449C155.003 51.0449 155.702 51.3007 156.264 51.7951C156.827 52.2895 157.117 52.9714 157.117 53.8409C157.117 54.6763 156.844 55.3583 156.298 55.8868C155.753 56.3983 155.037 56.6711 154.167 56.6711C153.298 56.6711 152.599 56.4153 152.053 55.8868C151.491 55.3583 151.218 54.6763 151.218 53.8239ZM152.138 53.8409C152.138 54.7104 152.309 55.3583 152.667 55.8016C153.008 56.2448 153.536 56.4494 154.235 56.4494C154.849 56.4494 155.327 56.2278 155.685 55.8016C156.043 55.3583 156.213 54.7104 156.213 53.8409C156.213 53.0055 156.043 52.3577 155.685 51.8974C155.327 51.4541 154.832 51.2154 154.167 51.2154C153.519 51.2154 153.008 51.437 152.667 51.8803C152.309 52.3406 152.138 52.9885 152.138 53.8409Z" fill="white"/>
<path d="M161.038 53.9089L162.692 52.4257C163.067 52.0847 163.272 51.829 163.272 51.6926C163.272 51.4709 163.084 51.3516 162.692 51.3516V51.1641H164.738V51.3516C164.568 51.3516 164.397 51.3857 164.227 51.4539C164.056 51.5221 163.903 51.6073 163.766 51.7267C163.63 51.846 163.357 52.0847 162.982 52.4427L161.993 53.3463L164.022 55.3922C164.482 55.8696 164.806 56.1423 164.96 56.2446C165.113 56.3469 165.318 56.3981 165.573 56.3981V56.5856H162.76V56.3981H162.863C163.17 56.3981 163.357 56.381 163.425 56.3299C163.494 56.2787 163.528 56.2105 163.528 56.1423C163.528 56.023 163.34 55.7843 162.948 55.3922L161.414 53.8578L161.021 54.1988V55.1876C161.021 55.6138 161.038 55.8866 161.056 56.023C161.073 56.1594 161.124 56.2446 161.209 56.3128C161.294 56.381 161.465 56.4151 161.703 56.4151H161.806V56.6027H159.368V56.4151H159.538C159.76 56.4151 159.93 56.381 160.016 56.3299C160.101 56.2787 160.169 56.1764 160.186 56.0571C160.203 55.9378 160.22 55.6479 160.22 55.1876V52.528C160.22 52.0847 160.203 51.7949 160.186 51.6755C160.152 51.5562 160.101 51.4709 160.016 51.4368C159.93 51.3857 159.743 51.3687 159.436 51.3687V51.1811H161.84V51.3687H161.737C161.465 51.3687 161.294 51.3857 161.209 51.4368C161.124 51.488 161.073 51.5562 161.038 51.6755C161.004 51.7949 160.987 52.0847 160.987 52.528V53.9089H161.038Z" fill="white"/>
<path d="M167.414 51.3345V51.147H169.886V51.3345H169.767C169.494 51.3345 169.323 51.3516 169.238 51.4027C169.153 51.4539 169.102 51.5221 169.068 51.6414C169.034 51.7607 169.017 52.0506 169.017 52.4938V55.1535C169.017 55.5797 169.034 55.8525 169.051 55.9889C169.068 56.1253 169.119 56.2105 169.204 56.2787C169.289 56.3469 169.46 56.381 169.699 56.381H169.852V56.5685H167.38V56.381H167.533C167.755 56.381 167.925 56.3469 168.011 56.2957C168.096 56.2446 168.164 56.1423 168.181 56.023C168.215 55.9036 168.215 55.6138 168.215 55.1535V52.4938C168.215 52.0676 168.198 51.7778 168.181 51.6584C168.164 51.5391 168.113 51.4539 168.028 51.4027C167.942 51.3516 167.772 51.3345 167.499 51.3345H167.414Z" fill="white"/>
<path d="M176.399 54.8806H176.586L176.467 56.5685H171.983V56.381H172.085C172.358 56.381 172.528 56.3469 172.614 56.2787C172.699 56.2105 172.75 56.1082 172.767 56.0059C172.784 55.8865 172.801 55.6138 172.801 55.1534V52.4938C172.801 52.0846 172.784 51.8118 172.767 51.6755C172.75 51.5391 172.699 51.4538 172.614 51.4027C172.528 51.3515 172.358 51.3174 172.102 51.3174V51.1299H175.972L176.092 52.4767H175.904C175.819 52.1017 175.717 51.8289 175.597 51.6755C175.478 51.522 175.324 51.4197 175.154 51.3686C174.984 51.3345 174.711 51.3004 174.336 51.3004H173.586V53.5679H174.165C174.421 53.5679 174.608 53.5508 174.711 53.4997C174.813 53.4485 174.881 53.3803 174.915 53.2951C174.949 53.2099 174.966 53.0223 174.966 52.7666H175.154V54.6249H174.966C174.966 54.318 174.932 54.1305 174.898 54.0282C174.847 53.9259 174.779 53.8577 174.677 53.8236C174.574 53.7895 174.421 53.7725 174.182 53.7725H173.586V55.0511C173.586 55.699 173.637 56.0741 173.705 56.1764C173.79 56.2957 174.012 56.3469 174.37 56.3469H174.779C175.069 56.3469 175.29 56.3128 175.478 56.2446C175.665 56.1764 175.836 56.0229 176.006 55.7842C176.177 55.5967 176.313 55.2728 176.399 54.8806Z" fill="white"/>
<path d="M178.956 56.5005V54.7615H179.161C179.382 55.9038 179.928 56.4664 180.763 56.4664C181.138 56.4664 181.445 56.3641 181.65 56.1425C181.854 55.9209 181.957 55.6822 181.957 55.4094C181.957 55.1366 181.871 54.915 181.684 54.7274C181.496 54.5399 181.172 54.3524 180.678 54.1478C180.252 53.9602 179.911 53.7898 179.689 53.6534C179.468 53.517 179.297 53.3294 179.178 53.1078C179.058 52.8862 178.99 52.6475 178.99 52.3917C178.99 51.9996 179.127 51.6927 179.382 51.42C179.655 51.1642 179.996 51.0278 180.405 51.0278C180.627 51.0278 180.848 51.0619 181.053 51.1472C181.258 51.2154 181.462 51.3688 181.684 51.6075C181.803 51.4541 181.871 51.3006 181.888 51.1301H182.059V52.5452H181.888C181.786 52.136 181.616 51.8121 181.343 51.5734C181.087 51.3347 180.797 51.2154 180.456 51.2154C180.132 51.2154 179.894 51.3006 179.74 51.4711C179.587 51.6416 179.519 51.8291 179.519 52.0508C179.519 52.3065 179.621 52.5111 179.809 52.6816C179.996 52.8521 180.337 53.0567 180.814 53.2783C181.275 53.4829 181.616 53.6534 181.837 53.7727C182.042 53.8921 182.212 54.0796 182.349 54.3012C182.468 54.5229 182.536 54.7786 182.536 55.0855C182.536 55.5458 182.383 55.9209 182.076 56.2107C181.769 56.5005 181.36 56.654 180.831 56.654C180.235 56.654 179.74 56.4323 179.348 55.972C179.263 56.0914 179.195 56.2789 179.144 56.5005H178.956Z" fill="white"/>
<path d="M0 18.7512L8.34202 16.2663C16.684 13.7815 24.2654 17.5595 26.6488 25.5719C29.0323 33.5843 24.7979 40.8867 16.4305 43.3716L8.08846 45.8564L0 18.7512ZM14.6556 38.5286C20.6649 36.7284 22.3637 32.3165 20.8424 27.2707C19.3464 22.1996 15.5177 19.4358 9.48303 21.236L7.04888 21.9714L12.1961 39.2639L14.6556 38.5286Z" fill="black"/>
<path d="M33.2419 23.9493C31.7206 15.7341 36.9946 8.50772 45.007 7.01174C53.0194 5.54111 60.5246 10.4094 62.046 18.6246C63.5673 26.8399 58.2933 34.0663 50.2809 35.5622C42.2432 37.0329 34.7379 32.1646 33.2419 23.9493ZM56.1381 19.7149C55.1746 14.517 51.0163 11.1954 45.9451 12.1336C40.874 13.0717 38.1609 17.6611 39.1244 22.859C40.088 28.057 44.2463 31.3786 49.3174 30.4404C54.3886 29.5022 57.0763 24.9129 56.1381 19.7149Z" fill="black"/>
<path d="M69.8549 21.642L68.0547 3.69021L73.8358 3.10703L75.6107 20.7292C76.0164 24.8115 77.9688 26.2061 81.7975 25.8257C85.6008 25.4454 87.1729 23.6958 86.7672 19.6136L84.9923 1.99138L90.7734 1.4082L92.599 19.36C93.3089 26.485 88.7449 30.4151 82.3299 31.049C75.8389 31.6829 70.5649 28.7416 69.8549 21.642Z" fill="black"/>
<path d="M99.6224 14.9225C99.3688 6.58052 105.074 0.26695 113.593 0.0133928C118.208 -0.138741 121.58 1.00226 123.989 3.58854L120.16 7.6201C118.69 6.20018 117.042 5.13524 113.771 5.23666C108.649 5.3888 105.454 9.44571 105.632 14.7197C105.809 19.9937 109.334 23.9238 115.267 23.721C117.092 23.6702 119.324 23.2646 120.769 22.5039L120.642 18.3456L113.822 18.5484L113.669 13.4266L125.815 13.0462L126.195 25.2677C124.623 26.6369 120.617 28.7414 115.444 28.8935C106.189 29.2231 99.8759 23.2646 99.6224 14.9225Z" fill="black"/>
<path d="M134.385 0.0131836L140.217 0.216029L139.71 14.6688L151.805 15.0998L152.312 0.647076L158.118 0.849921L157.129 29.0961L151.323 28.8933L151.627 20.2977L139.533 19.8667L139.228 28.4623L133.422 28.2594L134.385 0.0131836Z" fill="black"/>
<path d="M179.112 2.59961L184.894 3.30957L182.054 26.3072L194.757 27.8792L194.123 32.9504L175.639 30.6684L179.112 2.59961Z" fill="black"/>
<path d="M216.03 7.94971L216.512 8.05113L223.637 38.5287L217.653 37.3369L216.968 33.9393L205.71 31.708L203.783 34.5985L198.281 33.5082L216.03 7.94971ZM215.903 28.7667L214.864 23.5688C214.433 21.4389 214.179 18.2695 214.179 18.2695C214.179 18.2695 212.759 21.1347 211.568 22.9096L208.601 27.3214L215.903 28.7667Z" fill="black"/>
<path d="M236.797 12.7422L247.269 15.8609C252.34 17.3823 254.216 21.3885 253.075 25.2172C252.34 27.7274 250.337 28.9952 247.776 29.0712C251.224 31.049 252.289 34.0663 251.275 37.4386C249.83 42.2562 245.367 44.7918 239.688 43.0929L228.734 39.8221L236.797 12.7422ZM240.905 38.1486C243.187 38.8332 245.063 37.7429 245.722 35.5116C246.381 33.331 245.342 31.3533 242.806 30.5926L237.989 29.1473L235.757 36.6019L240.905 38.1486ZM243.694 25.6989C245.494 26.2314 246.99 25.5975 247.446 24.0508C247.903 22.5041 247.218 21.211 245.494 20.7039L240.905 19.3347L239.383 24.4312L243.694 25.6989Z" fill="black"/>
<path d="M48.8859 61.8351H45.8178L45.615 62.3422C45.3107 63.0775 45.1586 63.5593 45.1586 63.7875C45.1586 64.041 45.2347 64.2185 45.4121 64.3453C45.5896 64.4721 45.7925 64.5228 46.046 64.5228V64.8017H43.6626V64.5228C44.0176 64.4721 44.2965 64.3453 44.4486 64.1425C44.6261 63.9396 44.829 63.5339 45.0825 62.9C45.1079 62.8493 45.1839 62.6211 45.3614 62.2154L47.6942 56.6118H47.9224L50.6101 63.0014L50.9904 63.8382C51.0665 64.041 51.1932 64.1678 51.32 64.2946C51.4468 64.396 51.675 64.4721 51.9539 64.4974V64.7763H48.7844V64.4974C49.1648 64.4974 49.4437 64.4721 49.5705 64.4214C49.6972 64.3707 49.7733 64.2439 49.7733 64.0917C49.7733 64.0157 49.6719 63.7368 49.4944 63.3057L48.8859 61.8351ZM48.7844 61.5815L47.3645 58.1585L45.9446 61.5815H48.7844Z" fill="black"/>
<path d="M63.1611 64.8228H60.9805C60.6001 64.5439 60.017 63.8593 59.2056 62.7183C58.952 62.3633 58.6985 62.0083 58.4196 61.6787C58.1407 61.3491 57.9632 61.1462 57.8617 61.0702C57.7603 60.9941 57.6082 60.9687 57.38 60.9687H57.0757V62.769C57.0757 63.4029 57.1011 63.8086 57.1264 64.0114C57.1518 64.2143 57.2278 64.341 57.3546 64.4425C57.4814 64.5439 57.735 64.5946 58.0899 64.5946H58.4703V64.8735H54.6162V64.5946H54.8698C55.2247 64.5946 55.4529 64.5439 55.5797 64.4678C55.7065 64.3918 55.7826 64.2396 55.8333 64.0621C55.8586 63.8846 55.884 63.4536 55.884 62.769V58.8135C55.884 58.1796 55.8586 57.7486 55.8333 57.5711C55.7826 57.3936 55.7065 57.2668 55.6051 57.1907C55.4783 57.1147 55.2247 57.0893 54.8191 57.0893H54.6923V56.8104L55.8586 56.7597C56.6193 56.7343 57.2278 56.709 57.6842 56.709C58.4449 56.709 59.0788 56.7851 59.5606 56.9118C60.0423 57.064 60.4227 57.2922 60.7269 57.6218C61.0312 57.9514 61.1833 58.3317 61.1833 58.7881C61.1833 59.3206 60.9805 59.7517 60.6001 60.132C60.2198 60.5123 59.6366 60.7405 58.9013 60.8166C59.2309 60.9687 59.7888 61.5773 60.5241 62.5661C61.1326 63.3775 61.6144 63.91 61.9694 64.1636C62.3243 64.4171 62.73 64.5439 63.2118 64.5692V64.8228H63.1611ZM57.0757 60.6645C57.38 60.6645 57.6842 60.6391 57.9885 60.6391C58.2928 60.6138 58.5717 60.5884 58.7999 60.5123C59.0281 60.4363 59.2309 60.3348 59.3577 60.2081C59.5099 60.0813 59.6113 59.9038 59.6873 59.6756C59.7634 59.4474 59.8141 59.1685 59.8141 58.8642C59.8141 58.3064 59.6873 57.85 59.3831 57.495C59.1042 57.1654 58.4956 56.9879 57.5321 56.9879C57.38 56.9879 57.2278 56.9879 57.025 57.0132V60.6645H57.0757Z" fill="black"/>
<path d="M64.961 58.6863H64.6821L64.7328 56.7593H72.5424L72.5931 58.6863H72.3395C72.2381 58.1538 72.1113 57.7735 71.9592 57.5453C71.8071 57.3171 71.6296 57.165 71.4521 57.1143C71.2746 57.0635 70.9703 57.0382 70.5139 57.0382H69.2208V62.7179C69.2208 63.3518 69.2462 63.7574 69.2715 63.9603C69.2969 64.1631 69.3729 64.3153 69.5251 64.3913C69.6518 64.4928 69.9054 64.5435 70.2604 64.5435H70.6407V64.8224H66.6345V64.5435H67.0402C67.3698 64.5435 67.6234 64.4928 67.7502 64.4167C67.8769 64.3406 67.9784 64.1885 68.0037 64.011C68.0291 63.8335 68.0544 63.4025 68.0544 62.7179V57.0382H66.8627C66.3303 57.0382 66.0006 57.0635 65.8231 57.1143C65.6456 57.165 65.4682 57.3171 65.316 57.5707C65.1639 57.7989 65.0371 58.1792 64.961 58.6863Z" fill="black"/>
<path d="M75.6103 57.0382V56.7593H79.2869V57.0382H79.1094C78.7037 57.0382 78.4502 57.0635 78.3234 57.1396C78.1966 57.2157 78.1205 57.3171 78.0698 57.4946C78.0191 57.6721 78.0191 58.1031 78.0191 58.7624V62.7179C78.0191 63.3518 78.0445 63.7574 78.0698 63.9603C78.0952 64.1631 78.1712 64.2899 78.298 64.3913C78.4248 64.4928 78.6784 64.5435 79.0333 64.5435H79.2615V64.8224H75.585V64.5435H75.8132C76.1681 64.5435 76.3963 64.4928 76.5231 64.4167C76.6499 64.3406 76.7513 64.1885 76.7767 64.011C76.802 63.8335 76.8274 63.4025 76.8274 62.7179V58.7624C76.8274 58.1285 76.802 57.6974 76.7767 57.52C76.726 57.3425 76.6499 57.2157 76.5485 57.1396C76.4217 57.0635 76.1681 57.0382 75.7624 57.0382H75.6103Z" fill="black"/>
<path d="M82.7354 64.7212V62.1349H83.0396C83.3692 63.8338 84.1806 64.6705 85.4484 64.6705C86.0062 64.6705 86.4626 64.5184 86.7669 64.1887C87.0712 63.8591 87.2233 63.5041 87.2233 63.0984C87.2233 62.6928 87.0965 62.3631 86.8176 62.0842C86.5387 61.8053 86.0569 61.5264 85.3216 61.2221C84.6624 60.9432 84.1806 60.6897 83.851 60.4868C83.5214 60.284 83.2678 60.0051 83.0903 59.6754C82.9128 59.3458 82.8114 58.9908 82.8114 58.6105C82.8114 58.0273 83.0143 57.5709 83.42 57.1652C83.8256 56.7849 84.3328 56.582 84.9413 56.582C85.2709 56.582 85.6005 56.6327 85.9048 56.7595C86.2091 56.8609 86.5133 57.0891 86.843 57.4441C87.0205 57.2159 87.1219 56.9877 87.1472 56.7342H87.4008V58.8387H87.1472C86.9951 58.2301 86.7416 57.7484 86.3612 57.3934C85.9809 57.0384 85.5245 56.8609 85.0427 56.8609C84.561 56.8609 84.206 56.9877 83.9778 57.2413C83.7496 57.4948 83.6482 57.7737 83.6482 58.1034C83.6482 58.4837 83.7749 58.788 84.0792 59.0415C84.3581 59.2951 84.8652 59.5994 85.5752 59.929C86.2598 60.2332 86.7669 60.4868 87.0965 60.6643C87.4008 60.8418 87.6544 61.1207 87.8572 61.4503C88.06 61.7799 88.1361 62.1603 88.1361 62.6167C88.1361 63.3013 87.9079 63.8591 87.4515 64.2902C86.9951 64.7212 86.3866 64.9494 85.6005 64.9494C84.7131 64.9494 83.9778 64.6198 83.3946 63.9352C83.2678 64.1127 83.1664 64.3916 83.0903 64.7212H82.7354Z" fill="black"/>
<path d="M96.3263 61.8307H93.2582L93.0554 62.3378C92.7511 63.0731 92.599 63.5549 92.599 63.7831C92.599 64.0366 92.675 64.2141 92.8525 64.3409C93.0047 64.4677 93.2329 64.5184 93.4864 64.5184V64.7973H91.0776V64.5184C91.4326 64.4677 91.7115 64.3409 91.8637 64.1381C92.0412 63.9352 92.244 63.5295 92.4976 62.8956C92.5229 62.8449 92.6243 62.6167 92.7765 62.211L95.1092 56.6074H95.3374L98.0251 62.9971L98.4054 63.8338C98.4815 64.0366 98.6083 64.1634 98.7351 64.2902C98.8872 64.3916 99.09 64.4677 99.3689 64.493V64.7719H96.1995V64.493C96.5798 64.493 96.8587 64.4677 96.9855 64.417C97.1123 64.3663 97.1884 64.2395 97.1884 64.0873C97.1884 64.0113 97.0869 63.7324 96.9095 63.3013L96.3263 61.8307ZM96.2248 61.5771L94.8049 58.1541L93.385 61.5771H96.2248Z" fill="black"/>
<path d="M109.233 64.9998L103.528 57.4438V63.0475C103.528 63.5039 103.553 63.8081 103.604 63.9603C103.654 64.1124 103.781 64.2392 103.984 64.3659C104.187 64.4927 104.516 64.5434 104.947 64.5434V64.8224H101.93V64.5434C102.311 64.5181 102.615 64.442 102.818 64.3406C103.02 64.2392 103.147 64.1124 103.173 63.9856C103.198 63.8588 103.223 63.5546 103.223 63.0475V58.7623C103.223 58.1538 103.198 57.7228 103.122 57.5199C103.071 57.3171 102.97 57.1649 102.843 57.1142C102.716 57.0635 102.437 57.0128 102.006 57.0128V56.7339H104.39L109.157 63.0475V58.2299C109.157 57.8749 109.131 57.6213 109.055 57.4692C108.979 57.3171 108.827 57.2156 108.599 57.1396C108.371 57.0635 108.092 57.0128 107.787 57.0128V56.7339H110.703V57.0128C110.374 57.0382 110.095 57.1142 109.892 57.2156C109.689 57.3171 109.562 57.4438 109.512 57.596C109.461 57.7481 109.435 57.9763 109.435 58.3313V64.9998H109.233Z" fill="black"/>
<path d="M118.234 61.8307H115.165L114.963 62.3378C114.658 63.0731 114.506 63.5549 114.506 63.7831C114.506 64.0366 114.582 64.2141 114.76 64.3409C114.937 64.4677 115.14 64.5184 115.394 64.5184V64.7973H113.01V64.5184C113.365 64.4677 113.619 64.3409 113.796 64.1381C113.974 63.9352 114.177 63.5295 114.43 62.8956C114.456 62.8449 114.532 62.6167 114.709 62.211L117.042 56.6074H117.27L119.958 62.9971L120.313 63.8338C120.389 64.0366 120.516 64.1634 120.642 64.2902C120.794 64.3916 120.997 64.4677 121.276 64.493V64.7719H118.107V64.493C118.487 64.493 118.766 64.4677 118.893 64.417C119.02 64.3663 119.096 64.2395 119.096 64.0873C119.096 64.0113 118.994 63.7324 118.817 63.3013L118.234 61.8307ZM118.132 61.5771L116.712 58.1541L115.292 61.5771H118.132Z" fill="black"/>
<path d="M130.911 62.4389L130.861 64.797H124.015V64.5181H124.243C124.598 64.5181 124.826 64.4674 124.953 64.3913C125.08 64.3152 125.181 64.1631 125.206 63.9856C125.257 63.8081 125.257 63.3771 125.257 62.6925V58.737C125.257 58.1031 125.232 57.672 125.206 57.4946C125.181 57.3171 125.105 57.1903 124.978 57.1142C124.851 57.0382 124.598 57.0128 124.192 57.0128H123.989V56.7339H127.869V57.0128H127.514C127.108 57.0128 126.854 57.0382 126.728 57.1142C126.601 57.1903 126.525 57.2917 126.474 57.4692C126.423 57.6467 126.423 58.0777 126.423 58.737V62.946C126.423 63.5292 126.449 63.8842 126.474 64.0363C126.499 64.1885 126.601 64.2899 126.728 64.3659C126.854 64.442 127.159 64.4927 127.64 64.4927H128.249C128.756 64.4927 129.111 64.442 129.365 64.3659C129.593 64.2899 129.821 64.087 130.049 63.7828C130.277 63.4785 130.455 63.0221 130.632 62.3882H130.911V62.4389Z" fill="black"/>
<path d="M146.606 61.7799H146.86V64.5944H146.606C146.53 64.2648 146.404 63.9859 146.226 63.7577C145.516 64.5691 144.603 64.9494 143.513 64.9494C142.347 64.9494 141.409 64.5691 140.648 63.8338C139.913 63.0984 139.532 62.1096 139.532 60.9179C139.532 60.1318 139.71 59.3712 140.039 58.6612C140.369 57.9512 140.851 57.4441 141.459 57.0891C142.068 56.7595 142.727 56.582 143.462 56.582C144.071 56.582 144.603 56.7088 145.11 56.9624C145.592 57.2159 145.973 57.4948 146.201 57.7738C146.378 57.4441 146.48 57.0891 146.505 56.7342H146.759L146.835 59.7768H146.581C146.404 58.6866 146.049 57.9259 145.491 57.5202C144.933 57.0891 144.324 56.8863 143.64 56.8863C142.803 56.8863 142.119 57.2159 141.637 57.9005C141.13 58.5851 140.901 59.574 140.901 60.8418C140.901 62.0589 141.18 62.9717 141.713 63.6309C142.245 64.2648 142.93 64.5944 143.741 64.5944C144.172 64.5944 144.603 64.493 145.06 64.2902C145.516 64.0873 145.871 63.7323 146.125 63.2252C146.404 62.7435 146.556 62.2617 146.606 61.7799Z" fill="black"/>
<path d="M150.714 60.7404C150.714 59.498 151.12 58.4837 151.957 57.7484C152.794 56.9878 153.833 56.6074 155.076 56.6074C156.343 56.6074 157.383 56.9878 158.22 57.7231C159.056 58.4584 159.487 59.4726 159.487 60.7658C159.487 62.0082 159.082 63.0224 158.27 63.8084C157.459 64.5691 156.394 64.9748 155.076 64.9748C153.808 64.9748 152.743 64.5945 151.931 63.8084C151.12 63.0224 150.714 62.0082 150.714 60.7404ZM152.084 60.7658C152.084 62.0589 152.337 63.0224 152.87 63.6817C153.377 64.3409 154.163 64.6452 155.202 64.6452C156.115 64.6452 156.825 64.3156 157.358 63.6817C157.89 63.0224 158.144 62.0589 158.144 60.7658C158.144 59.5233 157.89 58.5598 157.358 57.8752C156.825 57.216 156.09 56.861 155.101 56.861C154.137 56.861 153.377 57.1906 152.87 57.8498C152.337 58.5345 152.084 59.498 152.084 60.7658Z" fill="black"/>
<path d="M163.164 60.7404C163.164 59.498 163.57 58.4837 164.406 57.7484C165.243 56.9878 166.283 56.6074 167.525 56.6074C168.793 56.6074 169.833 56.9878 170.669 57.7231C171.506 58.4584 171.937 59.4726 171.937 60.7658C171.937 62.0082 171.531 63.0224 170.72 63.8084C169.909 64.5691 168.844 64.9748 167.551 64.9748C166.257 64.9748 165.218 64.5945 164.406 63.8084C163.57 63.0224 163.164 62.0082 163.164 60.7404ZM164.533 60.7658C164.533 62.0589 164.787 63.0224 165.319 63.6817C165.826 64.3409 166.612 64.6452 167.652 64.6452C168.565 64.6452 169.275 64.3156 169.807 63.6817C170.34 63.0224 170.593 62.0589 170.593 60.7658C170.593 59.5233 170.34 58.5598 169.807 57.8752C169.275 57.216 168.539 56.861 167.551 56.861C166.587 56.861 165.826 57.1906 165.319 57.8498C164.787 58.5345 164.533 59.498 164.533 60.7658Z" fill="black"/>
<path d="M177.769 60.8674L180.228 58.6615C180.786 58.1544 181.09 57.774 181.09 57.5712C181.09 57.2416 180.811 57.0641 180.228 57.0641V56.7852H183.271V57.0641C183.017 57.0641 182.764 57.1148 182.51 57.2162C182.257 57.3176 182.028 57.4444 181.825 57.6219C181.623 57.7994 181.217 58.1544 180.659 58.6868L179.188 60.0307L182.206 63.0734C182.89 63.7833 183.372 64.189 183.6 64.3411C183.829 64.4933 184.133 64.5694 184.513 64.5694V64.8483H180.329V64.5694H180.482C180.938 64.5694 181.217 64.544 181.318 64.4679C181.42 64.3919 181.47 64.2904 181.47 64.189C181.47 64.0115 181.192 63.6565 180.608 63.0734L178.326 60.7914L177.743 61.2985V62.7691C177.743 63.403 177.769 63.8087 177.794 64.0115C177.819 64.2144 177.895 64.3412 178.022 64.4426C178.149 64.544 178.402 64.5947 178.757 64.5947H178.91V64.8736H175.284V64.5947H175.537C175.867 64.5947 176.12 64.544 176.247 64.4679C176.374 64.3919 176.475 64.2397 176.501 64.0622C176.526 63.8847 176.551 63.4537 176.551 62.7691V58.8136C176.551 58.1544 176.526 57.7233 176.501 57.5458C176.45 57.3683 176.374 57.2416 176.247 57.1908C176.12 57.1148 175.842 57.0894 175.385 57.0894V56.8105H178.96V57.0894H178.808C178.402 57.0894 178.149 57.1148 178.022 57.1908C177.895 57.2669 177.819 57.3683 177.769 57.5458C177.718 57.7233 177.692 58.1544 177.692 58.8136V60.8674H177.769Z" fill="black"/>
<path d="M187.252 57.0382V56.7593H190.928V57.0382H190.751C190.345 57.0382 190.092 57.0635 189.965 57.1396C189.838 57.2157 189.762 57.3171 189.711 57.4946C189.661 57.6721 189.635 58.1031 189.635 58.7624V62.7179C189.635 63.3518 189.661 63.7574 189.686 63.9603C189.711 64.1631 189.787 64.2899 189.914 64.3913C190.041 64.4928 190.295 64.5435 190.65 64.5435H190.878V64.8224H187.201V64.5435H187.429C187.759 64.5435 188.013 64.4928 188.139 64.4167C188.266 64.3406 188.368 64.1885 188.393 64.011C188.444 63.8335 188.444 63.4025 188.444 62.7179V58.7624C188.444 58.1285 188.418 57.6974 188.393 57.52C188.368 57.3425 188.291 57.2157 188.165 57.1396C188.038 57.0635 187.784 57.0382 187.379 57.0382H187.252Z" fill="black"/>
<path d="M200.614 62.3121H200.893L200.715 64.8224H194.047V64.5434H194.199C194.605 64.5434 194.858 64.4927 194.985 64.3913C195.112 64.2899 195.188 64.1377 195.213 63.9856C195.239 63.8081 195.264 63.4024 195.264 62.7178V58.7623C195.264 58.1538 195.239 57.7481 195.213 57.5453C195.188 57.3424 195.112 57.2156 194.985 57.1396C194.858 57.0635 194.605 57.0128 194.224 57.0128V56.7339H199.98L200.158 58.737H199.879C199.752 58.1792 199.6 57.7735 199.422 57.5453C199.245 57.3171 199.017 57.1649 198.763 57.0889C198.509 57.0382 198.104 56.9874 197.546 56.9874H196.43V60.3598H197.292C197.673 60.3598 197.952 60.3344 198.104 60.2583C198.256 60.1823 198.357 60.0808 198.408 59.9541C198.459 59.8273 198.484 59.5484 198.484 59.168H198.763V61.9318H198.484C198.484 61.4754 198.433 61.1965 198.383 61.0444C198.307 60.8922 198.205 60.7908 198.053 60.7401C197.901 60.6894 197.673 60.664 197.318 60.664H196.43V62.5657C196.43 63.5292 196.506 64.087 196.608 64.2392C196.735 64.4167 197.064 64.4927 197.597 64.4927H198.205C198.636 64.4927 198.966 64.442 199.245 64.3406C199.524 64.2392 199.777 64.011 200.031 63.656C200.284 63.3771 200.487 62.8953 200.614 62.3121Z" fill="black"/>
<path d="M204.417 64.7212V62.1349H204.722C205.051 63.8338 205.863 64.6705 207.105 64.6705C207.663 64.6705 208.119 64.5184 208.424 64.1887C208.728 63.8591 208.88 63.5041 208.88 63.0984C208.88 62.6928 208.753 62.3631 208.474 62.0842C208.195 61.8053 207.714 61.5264 206.978 61.2221C206.344 60.9432 205.837 60.6897 205.508 60.4868C205.178 60.284 204.925 60.0051 204.747 59.6754C204.57 59.3458 204.468 58.9908 204.468 58.6105C204.468 58.0273 204.671 57.5709 205.051 57.1652C205.457 56.7849 205.964 56.582 206.573 56.582C206.902 56.582 207.232 56.6327 207.536 56.7595C207.84 56.8609 208.145 57.0891 208.474 57.4441C208.652 57.2159 208.753 56.9877 208.779 56.7342H209.032V58.8387H208.779C208.627 58.2301 208.373 57.7484 207.967 57.3934C207.587 57.0384 207.156 56.8609 206.649 56.8609C206.167 56.8609 205.812 56.9877 205.584 57.2413C205.356 57.4948 205.254 57.7737 205.254 58.1034C205.254 58.4837 205.406 58.788 205.685 59.0415C205.964 59.2951 206.471 59.5994 207.181 59.929C207.866 60.2332 208.373 60.4868 208.703 60.6643C209.007 60.8418 209.26 61.1207 209.463 61.4503C209.641 61.7799 209.742 62.1603 209.742 62.6167C209.742 63.3013 209.514 63.8591 209.058 64.2902C208.601 64.7212 207.993 64.9494 207.207 64.9494C206.319 64.9494 205.584 64.6198 205.001 63.9352C204.874 64.1127 204.772 64.3916 204.696 64.7212H204.417Z" fill="black"/>
</svg>